<svg width="209.55" height="50.401" viewBox="0 0 209.55 50.401" xmlns="http://www.w3.org/2000/svg"><g id="svgGroup" stroke-linecap="round" fill-rule="evenodd" font-size="9pt" stroke="#000" stroke-width="0.25mm" fill="#b9a5cc" style="stroke:#000;stroke-width:0.25mm;fill:#b9a5cc"><path d="M 153.75 20.751 L 153.75 34.901 A 2.312 2.312 0 0 0 153.89 35.727 Q 154.176 36.481 155.05 36.851 Q 154 38.451 152.4 38.451 Q 149.65 38.451 149.65 34.951 L 149.65 21.051 A 8.72 8.72 0 0 0 149.445 19.069 Q 148.812 16.367 146.223 15.899 A 6.592 6.592 0 0 0 145.05 15.801 Q 142.55 15.801 140.3 17.801 A 9.752 9.752 0 0 0 137.75 21.466 A 12.728 12.728 0 0 0 137.2 23.151 L 137.2 34.901 A 2.569 2.569 0 0 0 137.307 35.669 Q 137.552 36.452 138.355 36.811 A 2.601 2.601 0 0 0 138.45 36.851 A 4.428 4.428 0 0 1 137.764 37.677 A 2.738 2.738 0 0 1 135.85 38.451 Q 133.324 38.451 133.077 35.603 A 7.544 7.544 0 0 1 133.05 34.951 L 133.05 3.551 A 2.588 2.588 0 0 0 132.934 2.751 Q 132.687 1.987 131.913 1.603 A 2.703 2.703 0 0 0 131.8 1.551 Q 132.581 0.127 134.121 0.011 A 3.717 3.717 0 0 1 134.4 0.001 Q 136.957 0.001 137.179 2.877 A 7.456 7.456 0 0 1 137.2 3.451 L 137.2 18.251 Q 138.5 15.551 140.9 13.851 Q 143.3 12.151 146.525 12.151 A 7.764 7.764 0 0 1 149.017 12.534 A 6.474 6.474 0 0 1 151.75 14.326 A 6.881 6.881 0 0 1 153.186 16.821 Q 153.75 18.493 153.75 20.751 Z M 5.4 3.451 L 5.4 23.251 Q 10.95 20.851 13.625 17.976 Q 15.626 15.825 16.13 13.632 A 6.593 6.593 0 0 0 16.3 12.151 Q 17.69 12.151 18.612 12.719 A 3.15 3.15 0 0 1 19 13.001 A 2.783 2.783 0 0 1 19.984 14.948 A 3.9 3.9 0 0 1 20 15.301 Q 20 17.258 18.188 19.127 A 12.273 12.273 0 0 1 16.925 20.251 Q 13.85 22.651 8.85 24.251 A 133.109 133.109 0 0 0 11.365 27.265 Q 16.494 33.216 18.85 34.151 A 6.553 6.553 0 0 0 20.132 34.51 Q 20.76 34.622 21.478 34.645 A 11.696 11.696 0 0 0 21.85 34.651 A 5.146 5.146 0 0 1 21.692 35.955 A 3.977 3.977 0 0 1 21.025 37.351 A 2.634 2.634 0 0 1 19.103 38.433 A 3.536 3.536 0 0 1 18.75 38.451 Q 16.981 38.451 15.152 36.986 A 11.952 11.952 0 0 1 14.05 35.976 A 31.525 31.525 0 0 1 12.816 34.609 Q 10.283 31.663 5.4 25.101 L 5.4 34.901 A 2.569 2.569 0 0 0 5.507 35.669 Q 5.752 36.452 6.555 36.811 A 2.601 2.601 0 0 0 6.65 36.851 A 4.428 4.428 0 0 1 5.964 37.677 A 2.738 2.738 0 0 1 4.05 38.451 Q 1.524 38.451 1.277 35.603 A 7.544 7.544 0 0 1 1.25 34.951 L 1.25 3.551 A 2.588 2.588 0 0 0 1.134 2.751 Q 0.887 1.987 0.113 1.603 A 2.703 2.703 0 0 0 0 1.551 Q 0.781 0.127 2.321 0.011 A 3.717 3.717 0 0 1 2.6 0.001 Q 5.157 0.001 5.379 2.877 A 7.456 7.456 0 0 1 5.4 3.451 Z M 45.25 20.201 L 45.25 33.501 Q 45.25 36.151 47.7 36.501 Q 46.866 38.214 45.066 38.422 A 4.491 4.491 0 0 1 44.55 38.451 A 3.493 3.493 0 0 1 42.985 38.121 Q 41.314 37.296 41.1 34.401 A 9.957 9.957 0 0 1 38.297 37.097 Q 36.268 38.366 33.651 38.445 A 11.601 11.601 0 0 1 33.3 38.451 A 9.262 9.262 0 0 1 30.968 38.171 A 6.88 6.88 0 0 1 28.2 36.751 A 5.56 5.56 0 0 1 26.27 33.13 A 8.004 8.004 0 0 1 26.2 32.051 Q 26.2 28.351 29.925 26.076 Q 33.447 23.925 40.299 23.629 A 49.069 49.069 0 0 1 41.1 23.601 L 41.1 20.601 A 13.938 13.938 0 0 0 41.013 18.985 Q 40.791 17.086 40 16.026 Q 38.949 14.617 36.736 14.554 A 7.378 7.378 0 0 0 36.525 14.551 Q 35.037 14.551 34.01 14.933 A 3.733 3.733 0 0 0 32.95 15.526 A 3.989 3.989 0 0 0 32.304 16.176 Q 31.897 16.703 31.789 17.292 A 2.399 2.399 0 0 0 31.75 17.726 A 3.484 3.484 0 0 0 31.853 18.594 A 2.507 2.507 0 0 0 32.45 19.701 Q 31.4 20.501 30.125 20.501 A 3.788 3.788 0 0 1 29.201 20.394 A 2.728 2.728 0 0 1 28.05 19.801 A 2.271 2.271 0 0 1 27.324 18.537 A 3.453 3.453 0 0 1 27.25 17.801 A 3.929 3.929 0 0 1 28.305 15.137 Q 28.938 14.419 29.95 13.801 A 10.841 10.841 0 0 1 33.383 12.467 Q 34.872 12.151 36.6 12.151 Q 40.313 12.151 42.612 14.028 A 7.535 7.535 0 0 1 42.9 14.276 A 6.952 6.952 0 0 1 45.064 18.196 A 10.29 10.29 0 0 1 45.25 20.201 Z M 191.45 15.651 L 191.45 15.701 Q 194.05 12.151 198.575 12.151 A 10.212 10.212 0 0 1 206.071 15.313 A 13.173 13.173 0 0 1 206.325 15.576 Q 209.185 18.613 209.509 23.871 A 22.443 22.443 0 0 1 209.55 25.251 A 18.599 18.599 0 0 1 209.169 29.134 Q 208.646 31.585 207.403 33.44 A 10.576 10.576 0 0 1 206.175 34.951 A 12.156 12.156 0 0 1 203.149 37.248 A 10.008 10.008 0 0 1 198.425 38.401 A 10.66 10.66 0 0 1 195.278 37.958 A 8.354 8.354 0 0 1 191.45 35.501 L 191.45 46.851 A 2.733 2.733 0 0 0 191.543 47.593 Q 191.792 48.474 192.7 48.801 A 4.428 4.428 0 0 1 192.014 49.627 A 2.738 2.738 0 0 1 190.1 50.401 A 3.107 3.107 0 0 1 188.85 50.168 Q 187.514 49.586 187.33 47.544 A 7.703 7.703 0 0 1 187.3 46.851 L 187.3 15.751 A 2.588 2.588 0 0 0 187.184 14.951 Q 186.937 14.187 186.163 13.803 A 2.703 2.703 0 0 0 186.05 13.751 Q 187 12.151 188.65 12.151 A 3.168 3.168 0 0 1 189.875 12.369 Q 191.244 12.94 191.423 14.999 A 7.544 7.544 0 0 1 191.45 15.651 Z M 74.1 3.451 L 74.1 34.901 A 2.569 2.569 0 0 0 74.207 35.669 Q 74.452 36.452 75.255 36.811 A 2.601 2.601 0 0 0 75.35 36.851 Q 74.3 38.451 72.7 38.451 Q 70.174 38.451 69.927 35.603 A 7.544 7.544 0 0 1 69.9 34.951 L 69.9 34.151 A 8.371 8.371 0 0 1 67.858 36.75 Q 65.813 38.451 62.7 38.451 A 9.532 9.532 0 0 1 56.077 35.797 A 13.04 13.04 0 0 1 55.35 35.076 A 11.159 11.159 0 0 1 52.761 30.304 Q 52.288 28.568 52.214 26.502 A 21.717 21.717 0 0 1 52.2 25.726 A 17.157 17.157 0 0 1 52.75 21.27 A 12.845 12.845 0 0 1 55.6 15.951 Q 59 12.151 63.8 12.151 A 11.634 11.634 0 0 1 67.961 12.883 A 10.864 10.864 0 0 1 69.9 13.851 L 69.9 3.551 A 2.756 2.756 0 0 0 69.801 2.786 A 1.831 1.831 0 0 0 68.65 1.551 A 3.686 3.686 0 0 1 69.367 0.684 A 2.775 2.775 0 0 1 71.25 0.001 Q 73.877 0.001 74.083 2.932 A 7.422 7.422 0 0 1 74.1 3.451 Z M 91.5 35.501 L 98.5 17.101 A 7.592 7.592 0 0 0 98.823 16.009 A 5.59 5.59 0 0 0 98.95 14.851 Q 98.95 13.801 98.25 13.051 Q 99.116 12.373 99.94 12.206 A 2.683 2.683 0 0 1 100.475 12.151 A 2.704 2.704 0 0 1 101.358 12.29 A 2.308 2.308 0 0 1 102.25 12.851 A 2.363 2.363 0 0 1 102.944 14.427 A 3.148 3.148 0 0 1 102.95 14.626 A 4.691 4.691 0 0 1 102.851 15.553 Q 102.706 16.269 102.35 17.101 L 95.2 34.901 Q 94.45 36.851 93.65 37.626 A 2.634 2.634 0 0 1 92.461 38.278 Q 91.993 38.401 91.425 38.401 A 4.115 4.115 0 0 1 90.456 38.293 A 2.843 2.843 0 0 1 89.15 37.601 Q 88.379 36.875 87.773 35.246 A 13.808 13.808 0 0 1 87.65 34.901 L 81.3 16.351 Q 80.916 15.316 80.269 14.858 A 1.971 1.971 0 0 0 79.25 14.501 Q 79.3 13.451 80.1 12.801 Q 80.9 12.151 81.95 12.151 A 3.087 3.087 0 0 1 84.57 13.563 Q 84.953 14.099 85.249 14.837 A 9.283 9.283 0 0 1 85.5 15.551 L 91.5 35.501 Z M 180.26 17.749 A 3.329 3.329 0 0 0 180.35 16.951 A 3.798 3.798 0 0 0 179.523 14.559 A 5.428 5.428 0 0 0 178.475 13.551 A 6.066 6.066 0 0 0 177.52 12.968 Q 176.605 12.518 175.465 12.316 A 11.542 11.542 0 0 0 173.45 12.151 Q 168.1 12.151 164.375 16.176 Q 160.65 20.201 160.65 26.126 Q 160.65 32.051 163.95 35.251 Q 167.25 38.451 171.9 38.451 A 12.698 12.698 0 0 0 172.691 38.426 A 10.391 10.391 0 0 0 177.6 36.901 Q 179.104 35.968 179.703 35.018 A 2.357 2.357 0 0 0 180.1 33.751 A 2.379 2.379 0 0 0 180.096 33.605 A 1.782 1.782 0 0 0 179.45 32.301 A 9.154 9.154 0 0 1 176.023 34.407 A 10.683 10.683 0 0 1 172.55 34.951 Q 169.3 34.951 167.075 32.551 A 7.187 7.187 0 0 1 165.797 30.595 Q 165.292 29.473 165.057 28.065 A 16.328 16.328 0 0 1 164.85 25.376 A 18.062 18.062 0 0 1 164.866 24.606 Q 164.936 22.966 165.309 21.576 A 9.487 9.487 0 0 1 167.25 17.801 A 9.735 9.735 0 0 1 168.662 16.439 A 6.444 6.444 0 0 1 172.7 15.001 Q 176.45 15.001 176.45 18.051 Q 176.45 18.601 176.3 19.151 A 2.3 2.3 0 0 0 176.525 19.272 Q 176.85 19.426 177.249 19.494 A 4.122 4.122 0 0 0 177.95 19.551 A 2.839 2.839 0 0 0 177.981 19.551 A 2.311 2.311 0 0 0 179.65 18.851 A 2.305 2.305 0 0 0 180.26 17.749 Z M 121.25 25.201 L 110.85 25.501 Q 110.85 30.401 112.975 32.751 Q 115.1 35.101 119.05 35.101 A 9.86 9.86 0 0 0 122.353 34.567 A 8.596 8.596 0 0 0 125.6 32.501 A 1.332 1.332 0 0 1 126.312 33.448 A 1.994 1.994 0 0 1 126.35 33.851 A 2.511 2.511 0 0 1 125.893 35.258 Q 125.35 36.073 124.163 36.841 A 10.768 10.768 0 0 1 123.95 36.976 A 9.85 9.85 0 0 1 120.319 38.292 A 13.001 13.001 0 0 1 118.25 38.451 A 13.354 13.354 0 0 1 114.234 37.872 A 10.879 10.879 0 0 1 109.8 35.201 A 10.631 10.631 0 0 1 106.969 30.132 Q 106.537 28.434 106.503 26.419 A 20.511 20.511 0 0 1 106.5 26.076 A 15.984 15.984 0 0 1 107.286 20.974 A 13.717 13.717 0 0 1 110.075 16.176 A 13.401 13.401 0 0 1 112.876 13.743 A 9.904 9.904 0 0 1 118.3 12.151 A 8.729 8.729 0 0 1 121.262 12.634 A 7.544 7.544 0 0 1 124.325 14.701 A 9.01 9.01 0 0 1 126.087 17.471 A 8.192 8.192 0 0 1 126.65 20.501 Q 126.65 22.073 126.079 23.097 A 3.312 3.312 0 0 1 125.375 23.976 A 3.981 3.981 0 0 1 124.197 24.675 Q 123.031 25.138 121.25 25.201 Z M 69.9 29.501 L 69.9 17.351 Q 67.65 15.251 64.425 15.251 A 6.674 6.674 0 0 0 59.546 17.338 A 9.502 9.502 0 0 0 58.925 18.026 A 9.426 9.426 0 0 0 57.167 21.486 Q 56.779 22.856 56.682 24.486 A 18.791 18.791 0 0 0 56.65 25.601 A 18.631 18.631 0 0 0 56.824 28.239 Q 57.017 29.586 57.425 30.673 A 7.419 7.419 0 0 0 58.625 32.801 A 6.74 6.74 0 0 0 60.587 34.462 A 6.169 6.169 0 0 0 63.6 35.201 A 6.626 6.626 0 0 0 66.325 34.672 Q 69.031 33.464 69.9 29.501 Z M 191.45 19.701 L 191.45 31.601 Q 192.48 33.167 193.714 33.968 A 5.488 5.488 0 0 0 194.25 34.276 A 7.095 7.095 0 0 0 196.154 34.897 Q 196.966 35.046 197.89 35.051 A 11.866 11.866 0 0 0 197.95 35.051 Q 201 35.051 203.125 32.426 A 8.978 8.978 0 0 0 204.775 29.136 Q 205.131 27.855 205.22 26.338 A 17.709 17.709 0 0 0 205.25 25.301 A 15.396 15.396 0 0 0 204.999 22.433 Q 204.52 19.908 203.125 18.201 A 7.666 7.666 0 0 0 201.343 16.579 A 6.147 6.147 0 0 0 197.95 15.601 A 7.042 7.042 0 0 0 194.54 16.412 Q 193.139 17.171 192.101 18.642 A 10.199 10.199 0 0 0 191.45 19.701 Z M 41.1 31.751 L 41.1 25.801 A 31.704 31.704 0 0 0 38.336 26.07 Q 35.083 26.544 33.25 27.676 A 7.01 7.01 0 0 0 31.989 28.651 Q 31.229 29.405 30.917 30.296 A 3.92 3.92 0 0 0 30.7 31.601 A 4.716 4.716 0 0 0 30.912 33.08 Q 31.609 35.191 34.598 35.201 A 8.536 8.536 0 0 0 34.625 35.201 A 7.527 7.527 0 0 0 40.398 32.606 A 10.679 10.679 0 0 0 41.1 31.751 Z M 110.95 23.351 L 120.3 22.601 A 2.756 2.756 0 0 0 121.185 22.401 Q 122.35 21.903 122.35 20.226 A 6.388 6.388 0 0 0 122.115 18.452 A 5.043 5.043 0 0 0 121.075 16.526 A 4.157 4.157 0 0 0 118.586 15.143 A 6.113 6.113 0 0 0 117.5 15.051 Q 115.251 15.051 113.384 17.155 A 9.557 9.557 0 0 0 113.3 17.251 Q 111.656 19.154 111.098 22.33 A 17.431 17.431 0 0 0 110.95 23.351 Z" vector-effect="non-scaling-stroke"/></g></svg>